<svg xmlns="http://www.w3.org/2000/svg" xmlns:xlink="http://www.w3.org/1999/xlink" width="500" zoomAndPan="magnify" viewBox="0 0 375 374.999991" height="500" preserveAspectRatio="xMidYMid meet" version="1.0"><defs><g/></defs><rect x="-37.5" width="450" fill="#ffffff" y="-37.499999" height="449.999989" fill-opacity="1"/><rect x="-37.5" width="450" fill="#100f0d" y="-37.499999" height="449.999989" fill-opacity="1"/><g fill="#ffffff" fill-opacity="1"><g transform="translate(39.29772, 254.538438)"><g><path d="M 22.5 -155.5 L 45.453125 -155.5 L 45.6875 -77.1875 L 45.6875 1.125 L 96.09375 1.34375 L 137.28125 1.34375 L 137.28125 19.359375 L 22.5 19.359375 Z M 22.5 -155.5 "/></g></g></g><g fill="#ffffff" fill-opacity="1"><g transform="translate(187.143059, 254.538438)"><g><path d="M 65.265625 -155.5 C 66.015625 -155.5 67.175781 -155.535156 68.75 -155.609375 C 70.320312 -155.691406 71.972656 -155.734375 73.703125 -155.734375 C 75.429688 -155.734375 77.082031 -155.691406 78.65625 -155.609375 C 80.226562 -155.535156 81.390625 -155.5 82.140625 -155.5 C 90.242188 -154.90625 97.894531 -152.957031 105.09375 -149.65625 C 106.75 -148.757812 108.363281 -147.820312 109.9375 -146.84375 C 111.507812 -145.863281 113.125 -144.773438 114.78125 -143.578125 C 114.925781 -143.578125 115.445312 -143.125 116.34375 -142.21875 C 117.25 -141.320312 117.773438 -140.800781 117.921875 -140.65625 C 118.222656 -140.957031 119.425781 -139.753906 121.53125 -137.046875 C 121.820312 -136.753906 122.191406 -136.34375 122.640625 -135.8125 C 123.097656 -135.289062 123.328125 -134.953125 123.328125 -134.796875 L 124.453125 -133.671875 C 127.304688 -129.773438 129.59375 -125.613281 131.3125 -121.1875 C 133.039062 -116.757812 134.054688 -112.070312 134.359375 -107.125 L 134.359375 -105.546875 L 115.90625 -105.546875 L 115.671875 -106.671875 C 115.523438 -106.816406 115.453125 -107.191406 115.453125 -107.796875 C 115.453125 -108.398438 115.453125 -108.847656 115.453125 -109.140625 C 115.003906 -111.097656 114.101562 -113.5 112.75 -116.34375 C 111.550781 -118.894531 110.050781 -121.21875 108.25 -123.3125 C 106.445312 -125.414062 104.421875 -127.367188 102.171875 -129.171875 C 98.566406 -131.722656 94.925781 -133.671875 91.25 -135.015625 C 87.582031 -136.367188 83.492188 -137.273438 78.984375 -137.734375 C 78.691406 -137.878906 78.019531 -137.988281 76.96875 -138.0625 C 75.914062 -138.132812 74.75 -138.171875 73.46875 -138.171875 C 72.195312 -138.171875 71 -138.132812 69.875 -138.0625 C 68.75 -137.988281 67.960938 -137.878906 67.515625 -137.734375 C 63.609375 -137.273438 59.78125 -136.632812 56.03125 -135.8125 C 52.28125 -134.988281 48.941406 -133.710938 46.015625 -131.984375 C 43.097656 -130.265625 40.625 -127.976562 38.59375 -125.125 C 36.570312 -122.269531 35.257812 -118.671875 34.65625 -114.328125 C 34.207031 -109.367188 35.332031 -104.867188 38.03125 -100.828125 C 39.6875 -98.273438 42.203125 -95.984375 45.578125 -93.953125 C 48.953125 -91.929688 52.585938 -90.171875 56.484375 -88.671875 C 60.390625 -87.171875 64.289062 -85.894531 68.1875 -84.84375 C 72.09375 -83.789062 75.394531 -82.890625 78.09375 -82.140625 C 81.238281 -81.242188 83.632812 -80.644531 85.28125 -80.34375 C 86.9375 -80.039062 87.914062 -79.816406 88.21875 -79.671875 L 89.5625 -79.21875 C 90.164062 -79.21875 90.691406 -78.992188 91.140625 -78.546875 C 95.492188 -77.335938 100.144531 -75.796875 105.09375 -73.921875 C 110.039062 -72.046875 114.765625 -69.71875 119.265625 -66.9375 C 123.773438 -64.164062 127.753906 -60.90625 131.203125 -57.15625 C 134.648438 -53.40625 136.898438 -49.054688 137.953125 -44.109375 C 138.847656 -40.503906 139.296875 -36.453125 139.296875 -31.953125 C 139.453125 -28.203125 139.453125 -26.03125 139.296875 -25.4375 C 139.148438 -25.132812 139.078125 -24.832031 139.078125 -24.53125 C 139.078125 -24.226562 139.003906 -23.851562 138.859375 -23.40625 C 138.554688 -21.15625 138.175781 -18.976562 137.71875 -16.875 C 137.269531 -14.78125 136.523438 -12.679688 135.484375 -10.578125 C 135.328125 -10.273438 135.175781 -9.972656 135.03125 -9.671875 C 135.03125 -9.378906 134.878906 -9.082031 134.578125 -8.78125 C 133.378906 -5.925781 131.46875 -3 128.84375 0 C 126.21875 3 123.628906 5.320312 121.078125 6.96875 C 120.628906 7.425781 120.253906 7.765625 119.953125 7.984375 C 119.648438 8.210938 119.425781 8.398438 119.28125 8.546875 C 118.820312 8.847656 118.144531 9.257812 117.25 9.78125 C 116.351562 10.3125 115.078125 10.953125 113.421875 11.703125 C 112.816406 12.003906 112.367188 12.304688 112.078125 12.609375 C 111.617188 12.898438 110.941406 13.125 110.046875 13.28125 C 109.296875 13.582031 108.882812 13.804688 108.8125 13.953125 C 108.738281 14.097656 108.328125 14.25 107.578125 14.40625 C 106.523438 14.707031 105.394531 15.046875 104.1875 15.421875 C 102.988281 15.796875 101.789062 16.128906 100.59375 16.421875 C 97.59375 17.328125 94.59375 17.96875 91.59375 18.34375 C 88.59375 18.71875 85.59375 19.054688 82.59375 19.359375 C 81.988281 19.503906 80.9375 19.578125 79.4375 19.578125 C 77.9375 19.578125 76.0625 19.578125 73.8125 19.578125 L 66.609375 19.578125 C 66.609375 19.578125 65.332031 19.425781 62.78125 19.125 C 60.082031 18.820312 58.660156 18.597656 58.515625 18.453125 C 58.210938 18.304688 57.835938 18.234375 57.390625 18.234375 C 56.941406 18.234375 56.488281 18.15625 56.03125 18 C 55.4375 17.851562 54.910156 17.78125 54.453125 17.78125 C 54.003906 17.78125 53.554688 17.703125 53.109375 17.546875 C 52.210938 17.253906 51.535156 17.109375 51.078125 17.109375 C 50.328125 16.953125 49.914062 16.835938 49.84375 16.765625 C 49.769531 16.691406 49.429688 16.578125 48.828125 16.421875 C 47.179688 16.128906 44.894531 15.378906 41.96875 14.171875 C 39.039062 12.972656 36.828125 11.925781 35.328125 11.03125 C 34.734375 10.582031 34.394531 10.359375 34.3125 10.359375 C 34.238281 10.359375 34.050781 10.28125 33.75 10.125 C 33.457031 9.820312 33.082031 9.523438 32.625 9.234375 C 29.175781 6.828125 25.953125 3.972656 22.953125 0.671875 C 22.347656 -0.523438 21.523438 -1.648438 20.484375 -2.703125 C 20.023438 -3.453125 19.679688 -3.9375 19.453125 -4.15625 C 19.234375 -4.382812 19.085938 -4.570312 19.015625 -4.71875 C 18.941406 -4.875 18.828125 -5.0625 18.671875 -5.28125 C 18.523438 -5.507812 18.300781 -6 18 -6.75 C 16.65625 -8.550781 15.492188 -10.648438 14.515625 -13.046875 C 13.535156 -15.453125 12.707031 -17.929688 12.03125 -20.484375 C 11.363281 -23.035156 10.800781 -25.582031 10.34375 -28.125 C 9.894531 -30.675781 9.597656 -33.078125 9.453125 -35.328125 C 9.453125 -35.773438 9.414062 -36.375 9.34375 -37.125 C 9.269531 -37.882812 9.234375 -38.335938 9.234375 -38.484375 C 9.078125 -39.085938 9.078125 -39.390625 9.234375 -39.390625 C 9.378906 -39.535156 12.378906 -39.535156 18.234375 -39.390625 L 29.25 -39.15625 L 29.25 -38.03125 C 29.550781 -33.082031 30.675781 -28.242188 32.625 -23.515625 C 34.582031 -18.785156 37.285156 -14.546875 40.734375 -10.796875 C 43.429688 -7.796875 45.082031 -6.296875 45.6875 -6.296875 L 45.90625 -6.078125 C 46.0625 -6.078125 46.210938 -6 46.359375 -5.84375 C 50.253906 -3.144531 54.789062 -1.269531 59.96875 -0.21875 C 65.144531 0.820312 70.0625 1.34375 74.71875 1.34375 C 79.21875 1.34375 83.679688 0.96875 88.109375 0.21875 C 92.535156 -0.53125 96.695312 -1.800781 100.59375 -3.59375 C 104.5 -5.394531 107.988281 -7.832031 111.0625 -10.90625 C 114.132812 -13.988281 116.5 -17.78125 118.15625 -22.28125 C 118.90625 -24.226562 119.351562 -26.175781 119.5 -28.125 C 119.644531 -30.082031 119.570312 -31.957031 119.28125 -33.75 C 118.53125 -38.257812 116.765625 -41.9375 113.984375 -44.78125 C 111.210938 -47.632812 107.953125 -50.257812 104.203125 -52.65625 C 103.597656 -52.957031 103.144531 -53.1875 102.84375 -53.34375 C 102.695312 -53.34375 102.097656 -53.640625 101.046875 -54.234375 C 99.398438 -54.984375 98.578125 -55.4375 98.578125 -55.59375 C 98.578125 -55.59375 97.820312 -55.890625 96.3125 -56.484375 C 95.414062 -56.785156 94.664062 -57.007812 94.0625 -57.15625 C 93.769531 -57.3125 93.507812 -57.460938 93.28125 -57.609375 C 93.050781 -57.765625 92.789062 -57.84375 92.5 -57.84375 C 90.84375 -58.289062 89.941406 -58.585938 89.796875 -58.734375 C 89.796875 -58.734375 89.421875 -58.882812 88.671875 -59.1875 C 88.515625 -59.332031 87.6875 -59.554688 86.1875 -59.859375 L 84.390625 -60.3125 L 84.171875 -60.3125 C 83.867188 -60.613281 83.414062 -60.835938 82.8125 -60.984375 C 82.507812 -61.140625 82.132812 -61.21875 81.6875 -61.21875 C 81.238281 -61.21875 80.640625 -61.363281 79.890625 -61.65625 C 79.585938 -61.65625 79.171875 -61.769531 78.640625 -62 C 78.117188 -62.226562 77.257812 -62.488281 76.0625 -62.78125 C 75.3125 -62.9375 74.632812 -63.085938 74.03125 -63.234375 C 73.4375 -63.390625 72.765625 -63.539062 72.015625 -63.6875 C 71.710938 -63.832031 71.148438 -64.019531 70.328125 -64.25 C 69.503906 -64.476562 68.867188 -64.664062 68.421875 -64.8125 C 66.015625 -65.113281 63.945312 -65.523438 62.21875 -66.046875 C 60.5 -66.578125 59.039062 -66.988281 57.84375 -67.28125 C 57.382812 -67.28125 56.894531 -67.394531 56.375 -67.625 C 55.851562 -67.851562 55.441406 -67.96875 55.140625 -67.96875 C 49.285156 -69.613281 43.804688 -71.484375 38.703125 -73.578125 C 33.609375 -75.679688 29.222656 -78.304688 25.546875 -81.453125 C 21.867188 -84.609375 18.941406 -88.472656 16.765625 -93.046875 C 14.585938 -97.628906 13.5 -103.296875 13.5 -110.046875 C 13.5 -112.898438 13.578125 -114.550781 13.734375 -115 C 13.734375 -115.300781 13.769531 -115.640625 13.84375 -116.015625 C 13.914062 -116.390625 13.953125 -116.953125 13.953125 -117.703125 C 14.703125 -124.597656 17.175781 -130.554688 21.375 -135.578125 C 25.582031 -140.609375 30.757812 -144.625 36.90625 -147.625 C 41.5625 -150.175781 45.535156 -151.675781 48.828125 -152.125 C 49.285156 -152.28125 49.585938 -152.394531 49.734375 -152.46875 C 49.878906 -152.539062 50.328125 -152.65625 51.078125 -152.8125 C 56.929688 -154.15625 61.660156 -155.050781 65.265625 -155.5 Z M 65.265625 -155.5 "/></g></g></g></svg>